<svg xmlns="http://www.w3.org/2000/svg" viewBox="0 0 202.32 270.84">
  <defs>
    <style>
      .cls-1 {
        fill: #ff8000;
      }
    </style>
  </defs>
  <title>Asset 2</title>
  <g id="Layer_2" data-name="Layer 2">
    <g id="Layer_1-2" data-name="Layer 1">
      <path class="cls-1" d="M202.17,179.23a10.8,10.8,0,0,1-4.09-4c-4.4-6.27-9-12.4-13.19-18.81-9.56-14.68-22.33-22.5-40.36-19.85a36,36,0,0,1-6.49.22c-14-.47-26.52,2.94-36.72,13.25-3.13,3.17-7.08,5.53-10.68,8.22-1,.71-2,1.27-3,1.91,3.58-5.23,7.69-9.78,11.58-14.51,5.73-7,11.31-14.23,12.74-23.44q5.1-32.8,9.57-65.7c1.18-8.67,1.54-17.44,2.4-27.69,2.15,2.5,3.2,3.75,4.28,5,5.51,6.23,10.95,12.52,16.57,18.66,4,4.37,9,6.87,15.06,6.61C170,58.65,180.1,58,190.24,57.55c2.88-.13,4.12-1.44,4.21-4.32.26-8,.9-16,1-24,.1-11-10.34-24.36-21.22-25.56C157,1.82,139.7,1,122.43.06,106.56-.78,95.71,6.85,88.08,20.51c-8.92,16-21,29.46-34.52,41.79A141.72,141.72,0,0,0,33.47,85.07c-18.19,25.62-27.31,55-33.42,85.42-.33,1.63,1,4.09,2.32,5.47,9.94,10.54,20.39,20.62,30.06,31.39C49.16,226,67.65,242.23,90,253.8c10.8,5.58,21.19,12.36,33.69,13.25,21.24,1.5,42.52,2.45,63.78,3.77a10.75,10.75,0,0,0,8.86-3.49c1.85-1.86,3.82-3.62,5.95-5.49ZM89.89,126.38a138.08,138.08,0,0,1,19.91-53c-1.75,17.39-2.5,34.87-9.48,51.16-.72,1.67-1.23,3.7-2.5,4.79s-3.89,2.43-5.29,1.93S89.65,127.92,89.89,126.38Z"/>
    </g>
  </g>
</svg>
