<svg xmlns="http://www.w3.org/2000/svg" viewBox="0 0 461.36 270.84">
  <defs>
    <style>
      .cls-1 {
        fill: #ff8000;
      }
    </style>
  </defs>
  <title>Asset 1</title>
  <g id="Layer_2" data-name="Layer 2">
    <g id="Layer_1-2" data-name="Layer 1">
      <g>
        <path class="cls-1" d="M202.17,179.23a10.8,10.8,0,0,1-4.09-4c-4.4-6.27-9-12.4-13.19-18.81-9.56-14.68-22.33-22.5-40.36-19.85a36,36,0,0,1-6.49.22c-14-.47-26.52,2.94-36.72,13.25-3.13,3.17-7.08,5.53-10.68,8.22-1,.71-2,1.27-3,1.91,3.58-5.23,7.69-9.78,11.58-14.51,5.73-7,11.31-14.23,12.74-23.44q5.1-32.8,9.57-65.7c1.18-8.67,1.54-17.44,2.4-27.69,2.15,2.5,3.2,3.75,4.28,5,5.51,6.23,10.95,12.52,16.57,18.66,4,4.37,9,6.87,15.06,6.61C170,58.65,180.1,58,190.24,57.55c2.88-.13,4.12-1.44,4.21-4.32.26-8,.9-16,1-24,.1-11-10.34-24.36-21.22-25.56C157,1.82,139.7,1,122.43.06,106.56-.78,95.71,6.85,88.08,20.51c-8.92,16-21,29.46-34.52,41.79A141.72,141.72,0,0,0,33.47,85.07c-18.19,25.62-27.31,55-33.42,85.42-.33,1.63,1,4.09,2.32,5.47,9.94,10.54,20.39,20.62,30.06,31.39C49.16,226,67.65,242.23,90,253.8c10.8,5.58,21.19,12.36,33.69,13.25,21.24,1.5,42.52,2.45,63.78,3.77a10.75,10.75,0,0,0,8.86-3.49c1.85-1.86,3.82-3.62,5.95-5.49ZM89.89,126.38a138.08,138.08,0,0,1,19.91-53c-1.75,17.39-2.5,34.87-9.48,51.16-.72,1.67-1.23,3.7-2.5,4.79s-3.89,2.43-5.29,1.93S89.65,127.92,89.89,126.38Z"/>
        <path class="cls-1" d="M260.43,179.62v16.93H211.12V179.62Zm0,36.34v17.2H230.2v20.75h30.23v16.93H211.12V216Z"/>
        <g>
          <path class="cls-1" d="M290.23,179.84h9v48.55h-9.6a29.88,29.88,0,0,1-2-4.15q-1.86-4.16-4.16-9.48t-5.88-13.64v27.27h-8.84V179.84h9.42a32.28,32.28,0,0,1,2,4.11q1.81,4.16,4.16,9.43L290.23,207Z"/>
          <path class="cls-1" d="M338.78,196.17h-9.65v-2.79a2.87,2.87,0,0,0-.05-.52,4.58,4.58,0,0,0-1.29-2.68s-.06,0-.09-.1-.05,0-.05-.05a5,5,0,0,0-2.77-.8h-4.21a4.56,4.56,0,0,0-2.77.85,3.69,3.69,0,0,0-.53.43,4.23,4.23,0,0,0-1.33,3.2v20.81a4.25,4.25,0,0,0,1.33,3.21,3.06,3.06,0,0,0,.53.42,4.5,4.5,0,0,0,2.77.85h3.87a5.38,5.38,0,0,0,2.77-.8,0,0,0,0,1,.05,0,.14.14,0,0,0,.05-.09,1.3,1.3,0,0,0,.29-.28,4,4,0,0,0,1.05-2.46,1.73,1.73,0,0,0,.05-.42v-4.67h-3.3v-8.92h13.28v13.54a10.58,10.58,0,0,1-.14,1.75,11.81,11.81,0,0,1-1.05,3.54,13,13,0,0,1-3.11,4.48c-.16.16-.33.31-.52.47a14,14,0,0,1-3.73,2.22,14.93,14.93,0,0,1-5.35,1.08h-4.21a14.2,14.2,0,0,1-5.45-1.08,14.42,14.42,0,0,1-4.54-3,13.71,13.71,0,0,1-3.15-4.44,2.64,2.64,0,0,1-.19-.56l-.19-.38v0a5.43,5.43,0,0,1-.24-.75V218a.2.2,0,0,1-.05-.14,1.57,1.57,0,0,1-.14-.66.11.11,0,0,1-.05-.09.16.16,0,0,0-.05-.1.52.52,0,0,0-.05-.23c0-.16-.06-.33-.09-.52v-.48a1.57,1.57,0,0,1-.05-.37v-.1a1.73,1.73,0,0,1-.05-.42V193.71a13.78,13.78,0,0,1,.19-2.26,13.46,13.46,0,0,1,1-3.07,13.67,13.67,0,0,1,3.15-4.43,14.22,14.22,0,0,1,10-4.11h4.21a14.94,14.94,0,0,1,5.35,1.09,13.51,13.51,0,0,1,3.73,2.22,2.28,2.28,0,0,1,.52.47,13,13,0,0,1,3.11,4.48,11.65,11.65,0,0,1,1.05,3.54,10,10,0,0,1,.14,1.74Z"/>
          <path class="cls-1" d="M354.94,219.38h15.48v9h-.76a.58.58,0,0,1-.29,0H346.19a.91.91,0,0,1-.72-.33,1.12,1.12,0,0,1-.33-.71V179.84h9.8Z"/>
          <path class="cls-1" d="M377.49,179.84h9.85v48.55h-9.85Z"/>
          <path class="cls-1" d="M415.82,196.12v-2.74a4.14,4.14,0,0,0-1.39-3.2.13.13,0,0,0,0-.1.19.19,0,0,0-.1-.05,4.9,4.9,0,0,0-2.77-.8h-3.63a4.64,4.64,0,0,0-2.25,1,3.78,3.78,0,0,0-1.29,3.2,4.49,4.49,0,0,0,1.19,3.4,16.82,16.82,0,0,0,4.69,2.55l6.21,2.4a15.38,15.38,0,0,1,4.11,2.51,16.55,16.55,0,0,1,3.54,4.24,10.73,10.73,0,0,1,1.53,5.71,14,14,0,0,1-9.13,13.21,16.45,16.45,0,0,1-5.74,1h-2.24a15.69,15.69,0,0,1-5.45-1.08,15.91,15.91,0,0,1-3.78-2.22c-.16-.16-.32-.3-.47-.43a14.94,14.94,0,0,1-3.21-4.48,14.34,14.34,0,0,1-1.05-3.54,17.34,17.34,0,0,1-.09-1.74v-2.79h9.79v2.79a4.19,4.19,0,0,0,1.34,3.16l.15.14a5.56,5.56,0,0,0,2.77.8h3.63a4.4,4.4,0,0,0,2.25-.94,3.67,3.67,0,0,0,1.33-3.16,4.58,4.58,0,0,0-1.19-3.45,17.68,17.68,0,0,0-4.73-2.59l-6.17-2.31a17.36,17.36,0,0,1-4.16-2.55,19.44,19.44,0,0,1-3.53-4.29,10.9,10.9,0,0,1-1.48-5.67,13.76,13.76,0,0,1,4.44-10.33,12.85,12.85,0,0,1,4.68-2.88,16.45,16.45,0,0,1,5.74-1h2.2a15.48,15.48,0,0,1,5.45,1.09,14,14,0,0,1,3.77,2.22,3,3,0,0,1,.48.47,13.38,13.38,0,0,1,3.2,4.43,12.29,12.29,0,0,1,1.05,3.59,9.48,9.48,0,0,1,.15,1.74v2.74Z"/>
          <path class="cls-1" d="M451.56,179.84h9.8v48.55h-9.8V208.86h-9.79v19.53H432V179.84h9.8v19.54h9.79Z"/>
        </g>
        <path class="cls-1" d="M293.19,247H286V244.9a2.38,2.38,0,0,0,0-.39,3.46,3.46,0,0,0-1-2s-.05,0-.07-.07,0,0,0,0a3.67,3.67,0,0,0-2.05-.6h-3.12a3.33,3.33,0,0,0-2.05.63,3,3,0,0,0-.39.32,3.14,3.14,0,0,0-1,2.37v15.42a3.15,3.15,0,0,0,1,2.38,3,3,0,0,0,.39.32,3.33,3.33,0,0,0,2.05.63h2.87a4.07,4.07,0,0,0,2.05-.6s0,0,0,0,0-.05,0-.07A1,1,0,0,0,285,263a3,3,0,0,0,.78-1.82,1.58,1.58,0,0,0,0-.32v-3.46h-2.44v-6.61h9.85v10a8.22,8.22,0,0,1-.11,1.29,8.61,8.61,0,0,1-.78,2.62,9.7,9.7,0,0,1-2.3,3.33l-.39.35a10.56,10.56,0,0,1-2.76,1.64,11.07,11.07,0,0,1-4,.8h-3.12a10.43,10.43,0,0,1-4-.8,10.63,10.63,0,0,1-3.36-2.24,10.28,10.28,0,0,1-2.34-3.29,1.87,1.87,0,0,1-.14-.42l-.14-.27v0c-.07-.19-.13-.37-.18-.56v-.07a.15.15,0,0,1,0-.1,1.28,1.28,0,0,1-.11-.49s0-.05,0-.07a.09.09,0,0,0,0-.07.34.34,0,0,0,0-.18c0-.11,0-.24-.07-.38v-.35a1.41,1.41,0,0,1,0-.28v-.07a1.08,1.08,0,0,1,0-.32v-15.7a10,10,0,0,1,.14-1.67,10.72,10.72,0,0,1,.71-2.28,10.24,10.24,0,0,1,2.34-3.28,10.52,10.52,0,0,1,7.4-3h3.12a11.3,11.3,0,0,1,4,.81,10.56,10.56,0,0,1,2.76,1.64,2.13,2.13,0,0,1,.39.35,9.66,9.66,0,0,1,2.3,3.32,8.75,8.75,0,0,1,.78,2.63,7.83,7.83,0,0,1,.11,1.29Z"/>
        <path class="cls-1" d="M313.87,234.65h7.33v11.51a10.51,10.51,0,0,1-3.19,7.45,10.34,10.34,0,0,1-3.58,2.3,8,8,0,0,1-2.08.63v14.3h-7.3v-14.3a8,8,0,0,1-2.09-.63,10.63,10.63,0,0,1-3.51-2.3,11.51,11.51,0,0,1-2.44-3.4,9.67,9.67,0,0,1-.85-4.05V234.65h7.4V246.4a3.3,3.3,0,0,0,1,2.45,5.51,5.51,0,0,0,.5.38,3.56,3.56,0,0,0,2.05.6h3.12a3.84,3.84,0,0,0,2.13-.6l.46-.38a3.22,3.22,0,0,0,1.06-2.45Z"/>
        <path class="cls-1" d="M334.52,235.07l12.11,28.12h-7.26c-.92-2.13-1.83-4.21-2.73-6.26s-1.61-3.69-2.12-4.9l-.57-1.4v20.21H327.4v-36h7S334.44,234.93,334.52,235.07Zm22.63-.21v36h-6.56V250.63L350,252c-.21.52-.49,1.18-.85,2s-.69,1.62-1,2.41L344.68,247q1.1-2.44,2.25-5.07t2-4.55l1-2.31q.15-.21.18-.21Z"/>
      </g>
    </g>
  </g>
</svg>
